<?xml version="1.0" standalone="no"?>
<!DOCTYPE svg PUBLIC "-//W3C//DTD SVG 20010904//EN"
 "http://www.w3.org/TR/2001/REC-SVG-20010904/DTD/svg10.dtd">
<svg version="1.0" xmlns="http://www.w3.org/2000/svg"
 width="654.000000pt" height="654.000000pt" viewBox="0 0 654.000000 654.000000"
 preserveAspectRatio="xMidYMid meet">
<metadata>
Created by potrace 1.11, written by Peter Selinger 2001-2013
</metadata>
<g transform="translate(0.000000,654.000000) scale(0.100000,-0.100000)"
fill="#000000" stroke="none">
<path d="M2228 5345 c-2 -1 -32 -5 -68 -8 -359 -31 -706 -235 -905 -533 -77
-115 -125 -197 -129 -224 -1 -3 -9 -26 -20 -50 -31 -75 -34 -84 -45 -120 -16
-53 -50 -212 -57 -266 -9 -69 -10 -380 -1 -434 7 -45 12 -70 23 -125 28 -143
141 -388 236 -516 71 -95 70 -95 342 -342 41 -38 125 -115 212 -196 66 -62
238 -221 308 -284 17 -16 80 -75 141 -130 189 -176 279 -258 479 -442 6 -6 45
-42 86 -80 41 -39 124 -115 184 -170 59 -55 140 -130 180 -167 39 -37 76 -67
81 -67 6 -1 42 30 81 67 40 37 94 87 120 111 27 24 79 72 115 105 36 34 85 79
110 101 68 61 290 264 329 302 19 18 47 43 61 55 28 25 221 203 339 312 25 23
74 68 110 101 36 32 114 103 173 158 59 55 118 109 130 119 75 64 235 216 314
296 215 219 350 501 390 812 14 108 8 355 -12 475 -67 404 -293 757 -611 953
-101 62 -235 119 -344 147 -174 44 -385 51 -570 19 -110 -19 -276 -93 -390
-173 -65 -46 -145 -113 -244 -205 -55 -50 -102 -89 -105 -88 -3 2 -44 39 -91
82 -180 164 -253 220 -370 283 -87 47 -205 91 -272 101 -21 3 -54 9 -73 12
-35 5 -232 13 -237 9z"/>
</g>
</svg>
